<svg xmlns="http://www.w3.org/2000/svg" viewBox="0 0 900 600"><defs><filter id="shadow" x="-20%" y="-20%" width="140%" height="140%"><feDropShadow dx="0" dy="12" stdDeviation="14" flood-color="#0f172a" flood-opacity="0.18"/></filter><linearGradient id="carbon" x1="0" x2="1"><stop offset="0" stop-color="#111827"/><stop offset="1" stop-color="#475569"/></linearGradient><linearGradient id="cork" x1="0" x2="1"><stop offset="0" stop-color="#c99b5b"/><stop offset="1" stop-color="#f2d7a6"/></linearGradient><linearGradient id="metal" x1="0" x2="1"><stop offset="0" stop-color="#94a3b8"/><stop offset="0.5" stop-color="#f8fafc"/><stop offset="1" stop-color="#64748b"/></linearGradient></defs><rect width="900" height="600" fill="#f8fafc"/><rect x="38" y="38" width="824" height="524" rx="26" fill="#ffffff" stroke="#e5e7eb" stroke-width="2"/><g filter="url(#shadow)"><g transform="translate(70 375) rotate(-5)"><rect x="0" y="-24" width="155" height="48" rx="24" fill="#2f2518"/><rect x="145" y="-14" width="75" height="28" rx="14" fill="#111827"/><path d="M205 0 C400 -5 620 -8 795 -12" fill="none" stroke="#020617" stroke-width="13" stroke-linecap="round"/><path d="M205 0 C400 -5 620 -8 795 -12" fill="none" stroke="#475569" stroke-width="4" stroke-linecap="round"/><g transform="translate(330 -4) scale(.85)"><circle cx="0" cy="0" r="13" fill="none" stroke="#0f172a" stroke-width="5"/><circle cx="0" cy="0" r="8" fill="#fff"/></g><g transform="translate(500 -8) scale(.65)"><circle cx="0" cy="0" r="13" fill="none" stroke="#0f172a" stroke-width="5"/><circle cx="0" cy="0" r="8" fill="#fff"/></g><g transform="translate(670 -11) scale(.45)"><circle cx="0" cy="0" r="13" fill="none" stroke="#0f172a" stroke-width="5"/><circle cx="0" cy="0" r="8" fill="#fff"/></g></g></g></svg>